<svg width="35" height="35" viewBox="0 0 35 35" fill="none" xmlns="http://www.w3.org/2000/svg">
<path fill-rule="evenodd" clip-rule="evenodd" d="M13.5531 12.6003V13.8797H20.9664L13.1504 21.6957L14.0551 22.6003L21.8691 14.7863V22.1959H23.1485V13.8797L23.1486 12.6003H13.5531Z" fill="#2B3F5A" fill-opacity="0.3"/>
<mask id="mask0_684_112" style="mask-type:luminance" maskUnits="userSpaceOnUse" x="12" y="11" width="13" height="13">
<path d="M24.1504 11.6002H12.1504V23.6002H24.1504V11.6002Z" fill="white"/>
<path fill-rule="evenodd" clip-rule="evenodd" d="M13.5531 12.6003V13.8797H20.9664L13.1504 21.6957L14.0551 22.6003L21.8691 14.7863V22.1959H23.1485V13.8797L23.1486 12.6003H13.5531Z" fill="black"/>
</mask>
<g mask="url(#mask0_684_112)">
<path d="M13.5535 13.8796H13.3212V14.1119H13.5535V13.8796ZM13.5535 12.6002V12.368H13.3212V12.6002H13.5535ZM20.9668 13.8796L21.131 14.0439L21.5275 13.6474H20.9668V13.8796ZM13.1508 21.6956L12.9866 21.5314L12.8223 21.6956L12.9866 21.8598L13.1508 21.6956ZM14.0555 22.6003L13.8912 22.7645L14.0555 22.9287L14.2197 22.7645L14.0555 22.6003ZM21.8695 14.7863H22.1018V14.2255L21.7053 14.622L21.8695 14.7863ZM21.8695 22.1959H21.6372V22.4281H21.8695V22.1959ZM23.1489 22.1959V22.4281H23.3812V22.1959H23.1489ZM23.1489 13.8796V13.6474H22.9166V13.8796H23.1489ZM23.1489 13.8796L23.149 14.1119H23.3812V13.8796H23.1489ZM23.149 12.6002H23.3812V12.368H23.149V12.6002ZM13.7857 13.8796V12.6002H13.3212V13.8796H13.7857ZM20.9668 13.6474H13.5535V14.1119H20.9668V13.6474ZM20.8025 13.7154L12.9866 21.5314L13.315 21.8598L21.131 14.0439L20.8025 13.7154ZM12.9866 21.8598L13.8912 22.7645L14.2197 22.4361L13.315 21.5314L12.9866 21.8598ZM14.2197 22.7645L22.0337 14.9505L21.7053 14.622L13.8912 22.4361L14.2197 22.7645ZM21.6372 14.7863V22.1959H22.1018V14.7863H21.6372ZM21.8695 22.4281H23.1489V21.9636H21.8695V22.4281ZM23.3812 22.1959V13.8796H22.9166V22.1959H23.3812ZM22.9167 12.6002L22.9166 13.8796H23.3812V12.6002H22.9167ZM13.5535 12.8325H23.149V12.368H13.5535V12.8325Z" fill="#2B3F5A" fill-opacity="0.3"/>
</g>
<path d="M27.1504 0.599976H7.15039C3.2844 0.599976 0.150391 3.73398 0.150391 7.59998V27.6C0.150391 31.466 3.2844 34.6 7.15039 34.6H27.1504C31.0164 34.6 34.1504 31.466 34.1504 27.6V7.59998C34.1504 3.73398 31.0164 0.599976 27.1504 0.599976Z" fill="#5462E3"/>
<path fill-rule="evenodd" clip-rule="evenodd" d="M12.5531 12.6003V13.8797H19.9664L12.1504 21.6957L13.0551 22.6003L20.8691 14.7863V22.1959H22.1485V13.8797L22.1486 12.6003H12.5531Z" fill="white"/>
<mask id="mask1_684_112" style="mask-type:luminance" maskUnits="userSpaceOnUse" x="11" y="11" width="13" height="13">
<path d="M23.1504 11.6002H11.1504V23.6002H23.1504V11.6002Z" fill="white"/>
<path fill-rule="evenodd" clip-rule="evenodd" d="M12.5531 12.6003V13.8797H19.9664L12.1504 21.6957L13.0551 22.6003L20.8691 14.7863V22.1959H22.1485V13.8797L22.1486 12.6003H12.5531Z" fill="black"/>
</mask>
<g mask="url(#mask1_684_112)">
<path d="M12.5535 13.8796H12.3212V14.1119H12.5535V13.8796ZM12.5535 12.6002V12.368H12.3212V12.6002H12.5535ZM19.9668 13.8796L20.131 14.0439L20.5275 13.6474H19.9668V13.8796ZM12.1508 21.6956L11.9866 21.5314L11.8223 21.6956L11.9866 21.8598L12.1508 21.6956ZM13.0555 22.6003L12.8912 22.7645L13.0555 22.9287L13.2197 22.7645L13.0555 22.6003ZM20.8695 14.7863H21.1018V14.2255L20.7053 14.622L20.8695 14.7863ZM20.8695 22.1959H20.6372V22.4281H20.8695V22.1959ZM22.1489 22.1959V22.4281H22.3812V22.1959H22.1489ZM22.1489 13.8796V13.6474H21.9166V13.8796H22.1489ZM22.1489 13.8796L22.149 14.1119H22.3812V13.8796H22.1489ZM22.149 12.6002H22.3812V12.368H22.149V12.6002ZM12.7857 13.8796V12.6002H12.3212V13.8796H12.7857ZM19.9668 13.6474H12.5535V14.1119H19.9668V13.6474ZM19.8025 13.7154L11.9866 21.5314L12.315 21.8598L20.131 14.0439L19.8025 13.7154ZM11.9866 21.8598L12.8912 22.7645L13.2197 22.4361L12.315 21.5314L11.9866 21.8598ZM13.2197 22.7645L21.0337 14.9505L20.7053 14.622L12.8912 22.4361L13.2197 22.7645ZM20.6372 14.7863V22.1959H21.1018V14.7863H20.6372ZM20.8695 22.4281H22.1489V21.9636H20.8695V22.4281ZM22.3812 22.1959V13.8796H21.9166V22.1959H22.3812ZM21.9167 12.6002L21.9166 13.8796H22.3812V12.6002H21.9167ZM12.5535 12.8325H22.149V12.368H12.5535V12.8325Z" fill="white"/>
</g>
</svg>
