<svg
  width="16"
  height="16"
  viewBox="0 0 16 16"
  fill="none"
  xmlns="http://www.w3.org/2000/svg"
>
  <path
    d="M10.3686 14.4997H5.63196C4.16196 14.4997 3.35193 13.6943 3.35193 12.233C3.35193 10.6303 4.25864 8.75903 6.81531 8.75903H9.18526C11.7419 8.75903 12.6486 10.6303 12.6486 12.233C12.6486 13.6943 11.8386 14.4997 10.3686 14.4997ZM6.81531 9.75903C4.52931 9.75903 4.35193 11.6523 4.35193 12.233C4.35193 13.133 4.72329 13.4997 5.63196 13.4997H10.3686C11.2773 13.4997 11.6486 13.1323 11.6486 12.233C11.6486 11.6523 11.4706 9.75903 9.18526 9.75903H6.81531ZM8.00533 7.84098C6.62466 7.84098 5.50126 6.71766 5.50126 5.337C5.50126 3.95633 6.62466 2.83301 8.00533 2.83301C9.386 2.83301 10.51 3.95633 10.51 5.337C10.51 6.71766 9.386 7.84098 8.00533 7.84098ZM8.00533 3.83301C7.176 3.83301 6.50126 4.50766 6.50126 5.337C6.50126 6.16633 7.176 6.84098 8.00533 6.84098C8.83466 6.84098 9.50997 6.16633 9.50997 5.337C9.50997 4.50766 8.83466 3.83301 8.00533 3.83301ZM15.1666 8.43302C15.1666 7.11569 14.35 5.78638 12.5267 5.78638H11.8799C11.6039 5.78638 11.3799 6.01038 11.3799 6.28638C11.3799 6.56238 11.6039 6.78638 11.8799 6.78638H12.5267C14.0073 6.78638 14.1666 7.93769 14.1666 8.43302C14.1666 9.00902 13.9606 9.21297 13.3799 9.21297H13.1399C12.8639 9.21297 12.6399 9.43697 12.6399 9.71297C12.6399 9.98897 12.8639 10.213 13.1399 10.213H13.3799C14.5153 10.213 15.1666 9.56436 15.1666 8.43302ZM12.066 5.35636C12.9666 5.17503 13.62 4.37104 13.62 3.44637C13.62 2.37304 12.7466 1.49967 11.6733 1.49967C11.166 1.49967 10.6939 1.68765 10.3446 2.02832C10.1466 2.22099 10.1427 2.53768 10.3353 2.73568C10.5273 2.93368 10.8453 2.9377 11.0426 2.74504C11.2046 2.58704 11.4286 2.50033 11.6733 2.50033C12.1953 2.50033 12.62 2.92502 12.62 3.44702C12.62 3.89769 12.3033 4.28903 11.868 4.37703C11.5973 4.4317 11.4219 4.69564 11.4766 4.96631C11.5246 5.20364 11.7333 5.36768 11.9659 5.36768C11.9993 5.36634 12.0326 5.36303 12.066 5.35636ZM3.35331 9.71297C3.35331 9.43697 3.12931 9.21297 2.85331 9.21297H2.61926C2.0386 9.21297 1.83264 9.00902 1.83264 8.43302C1.83264 7.93769 1.99195 6.78638 3.47262 6.78638H4.13261C4.40861 6.78638 4.63261 6.56238 4.63261 6.28638C4.63261 6.01038 4.40861 5.78638 4.13261 5.78638H3.47262C1.52395 5.78638 0.832642 7.21236 0.832642 8.43302C0.832642 9.56436 1.48393 10.213 2.61926 10.213H2.85331C3.12931 10.213 3.35331 9.98897 3.35331 9.71297ZM4.53731 4.96501C4.59198 4.69434 4.41662 4.43032 4.14596 4.37565C3.70596 4.28698 3.3866 3.8963 3.3866 3.44564C3.3866 2.92364 3.81463 2.49902 4.33997 2.49902C4.57997 2.49902 4.80592 2.58769 4.97725 2.74902C5.17792 2.93902 5.49396 2.92967 5.68396 2.729C5.87396 2.52834 5.86461 2.21171 5.66394 2.02238C5.30727 1.68505 4.83728 1.49902 4.34062 1.49902C3.26395 1.49902 2.38733 2.3723 2.38733 3.44564C2.38733 4.36964 3.04394 5.17305 3.94861 5.35571C3.98194 5.36238 4.01531 5.36564 4.04797 5.36564C4.28064 5.36631 4.48865 5.20234 4.53731 4.96501Z"
    fill="#293BDC"
  />
</svg> 