<svg
  width="16"
  height="16"
  viewBox="0 0 16 16"
  fill="none"
  xmlns="http://www.w3.org/2000/svg"
>
  <path
    d="M14.6667 13.5H14.5V7.33333C14.5 6.168 13.832 5.5 12.6667 5.5H12.5V4C12.5 2.388 11.612 1.5 10 1.5H6.00004C4.38804 1.5 3.50004 2.388 3.50004 4V5.5H3.33337C2.16804 5.5 1.50004 6.168 1.50004 7.33333V13.5H1.33337C1.05737 13.5 0.833374 13.724 0.833374 14C0.833374 14.276 1.05737 14.5 1.33337 14.5H14.6667C14.9427 14.5 15.1667 14.276 15.1667 14C15.1667 13.724 14.9427 13.5 14.6667 13.5ZM4.50004 4C4.50004 2.94867 4.94871 2.5 6.00004 2.5H10C11.0514 2.5 11.5 2.94867 11.5 4V13.5H9.83337V12C9.83337 10.9887 9.01137 10.1667 8.00004 10.1667C6.98871 10.1667 6.16671 10.9887 6.16671 12V13.5H4.50004V4ZM8.83337 13.5H7.16671V12C7.16671 11.5407 7.54071 11.1667 8.00004 11.1667C8.45937 11.1667 8.83337 11.5407 8.83337 12V13.5ZM2.50004 7.33333C2.50004 6.726 2.72604 6.5 3.33337 6.5H3.50004V13.5H2.50004V7.33333ZM12.5 13.5V6.5H12.6667C13.274 6.5 13.5 6.726 13.5 7.33333V13.5H12.5ZM5.83337 4.66667C5.83337 4.39067 6.05737 4.16667 6.33337 4.16667H7.00004C7.27604 4.16667 7.50004 4.39067 7.50004 4.66667C7.50004 4.94267 7.27604 5.16667 7.00004 5.16667H6.33337C6.05737 5.16667 5.83337 4.94267 5.83337 4.66667ZM8.50004 4.66667C8.50004 4.39067 8.72404 4.16667 9.00004 4.16667H9.66671C9.94271 4.16667 10.1667 4.39067 10.1667 4.66667C10.1667 4.94267 9.94271 5.16667 9.66671 5.16667H9.00004C8.72404 5.16667 8.50004 4.94267 8.50004 4.66667ZM5.83337 6.66667C5.83337 6.39067 6.05737 6.16667 6.33337 6.16667H7.00004C7.27604 6.16667 7.50004 6.39067 7.50004 6.66667C7.50004 6.94267 7.27604 7.16667 7.00004 7.16667H6.33337C6.05737 7.16667 5.83337 6.94267 5.83337 6.66667ZM8.50004 6.66667C8.50004 6.39067 8.72404 6.16667 9.00004 6.16667H9.66671C9.94271 6.16667 10.1667 6.39067 10.1667 6.66667C10.1667 6.94267 9.94271 7.16667 9.66671 7.16667H9.00004C8.72404 7.16667 8.50004 6.94267 8.50004 6.66667ZM5.83337 8.66667C5.83337 8.39067 6.05737 8.16667 6.33337 8.16667H7.00004C7.27604 8.16667 7.50004 8.39067 7.50004 8.66667C7.50004 8.94267 7.27604 9.16667 7.00004 9.16667H6.33337C6.05737 9.16667 5.83337 8.94267 5.83337 8.66667ZM8.50004 8.66667C8.50004 8.39067 8.72404 8.16667 9.00004 8.16667H9.66671C9.94271 8.16667 10.1667 8.39067 10.1667 8.66667C10.1667 8.94267 9.94271 9.16667 9.66671 9.16667H9.00004C8.72404 9.16667 8.50004 8.94267 8.50004 8.66667Z"
    fill="#293BDC"
  />
</svg> 