<svg
  width="20"
  height="20"
  viewBox="0 0 20 20"
  fill="none"
  xmlns="http://www.w3.org/2000/svg"
>
  <path
    d="M10 11.1912C11.436 11.1912 12.6 10.0272 12.6 8.59121C12.6 7.15527 11.436 5.99121 10 5.99121C8.56408 5.99121 7.40002 7.15527 7.40002 8.59121C7.40002 10.0272 8.56408 11.1912 10 11.1912Z"
    stroke="#2D3A3C"
    stroke-width="1.5"
  />
  <path
    d="M3.01663 7.07533C4.65829 -0.141339 15.35 -0.133006 16.9833 7.08366C17.9416 11.317 15.3083 14.9003 13 17.117C11.325 18.7337 8.67496 18.7337 6.99163 17.117C4.69163 14.9003 2.05829 11.3087 3.01663 7.07533Z"
    stroke="#2D3A3C"
    stroke-width="1.5"
  />
  <path
    d="M3.01663 7.07533C4.65829 -0.141339 15.35 -0.133006 16.9833 7.08366C17.9416 11.317 15.3083 14.9003 13 17.117C11.325 18.7337 8.67496 18.7337 6.99163 17.117C4.69163 14.9003 2.05829 11.3087 3.01663 7.07533Z"
    stroke="black"
    stroke-opacity="0.2"
    stroke-width="1.5"
  />
</svg> 