<svg
  width="16"
  height="16"
  viewBox="0 0 16 16"
  fill="none"
  xmlns="http://www.w3.org/2000/svg"
>
  <path
    d="M14 10.8337H13.7667C13.8067 10.5537 13.8333 10.2803 13.8333 10.0003C13.8333 7.24699 11.9133 4.93366 9.34 4.327C9.44 4.127 9.5 3.90699 9.5 3.66699C9.5 2.84033 8.82667 2.16699 8 2.16699C7.17333 2.16699 6.5 2.84033 6.5 3.66699C6.5 3.90699 6.56 4.127 6.66 4.327C4.08667 4.93366 2.16667 7.24699 2.16667 10.0003C2.16667 10.2803 2.19334 10.5537 2.23334 10.8337H2C1.72667 10.8337 1.5 11.0603 1.5 11.3337V12.3337C1.5 13.1603 2.17333 13.8337 3 13.8337H13C13.8267 13.8337 14.5 13.1603 14.5 12.3337V11.3337C14.5 11.0603 14.2733 10.8337 14 10.8337ZM7.5 3.66699C7.5 3.39366 7.72667 3.16699 8 3.16699C8.27333 3.16699 8.5 3.39366 8.5 3.66699C8.5 3.94033 8.27333 4.16699 8 4.16699C7.72667 4.16699 7.5 3.94033 7.5 3.66699ZM3.16667 10.0003C3.16667 7.33366 5.33333 5.16699 8 5.16699C10.6667 5.16699 12.8333 7.33366 12.8333 10.0003C12.8333 10.2737 12.8 10.5537 12.7533 10.8337H3.24666C3.2 10.5537 3.16667 10.2737 3.16667 10.0003ZM13.5 12.3337C13.5 12.607 13.2733 12.8337 13 12.8337H3C2.72667 12.8337 2.5 12.607 2.5 12.3337V11.8337H13.5V12.3337ZM11.14 7.73366C11.2867 7.967 11.2133 8.27366 10.98 8.42033C10.9 8.47366 10.8067 8.49366 10.72 8.49366C10.5533 8.49366 10.3867 8.40699 10.2933 8.26032C9.94667 7.70699 9.29334 7.28032 8.58667 7.15366C8.31334 7.10699 8.13334 6.84699 8.18 6.57366C8.22667 6.30033 8.48667 6.12033 8.76 6.16699C9.75333 6.34033 10.6467 6.92699 11.1467 7.72699L11.14 7.73366Z"
    fill="#293BDC"
  />
</svg> 