<svg
  width="16"
  height="16"
  viewBox="0 0 16 16"
  fill="none"
  xmlns="http://www.w3.org/2000/svg"
>
  <path
    d="M8.00004 15.1663C4.04804 15.1663 0.833374 11.9517 0.833374 7.99967C0.833374 4.04767 4.04804 0.833008 8.00004 0.833008C11.952 0.833008 15.1667 4.04767 15.1667 7.99967C15.1667 11.9517 11.952 15.1663 8.00004 15.1663ZM8.00004 1.83301C4.59937 1.83301 1.83337 4.59901 1.83337 7.99967C1.83337 11.4003 4.59937 14.1663 8.00004 14.1663C11.4007 14.1663 14.1667 11.4003 14.1667 7.99967C14.1667 4.59901 11.4007 1.83301 8.00004 1.83301ZM8.50004 10.9997V7.95231C8.50004 7.67631 8.27604 7.45231 8.00004 7.45231C7.72404 7.45231 7.50004 7.67631 7.50004 7.95231V10.9997C7.50004 11.2757 7.72404 11.4997 8.00004 11.4997C8.27604 11.4997 8.50004 11.2757 8.50004 10.9997ZM8.68005 5.66634C8.68005 5.29834 8.38205 4.99967 8.01339 4.99967H8.00671C7.63871 4.99967 7.3433 5.29834 7.3433 5.66634C7.3433 6.03434 7.64539 6.33301 8.01339 6.33301C8.38139 6.33301 8.68005 6.03434 8.68005 5.66634Z"
    fill="#FEEFEA"
  />
</svg> 