<svg
  width="16"
  height="16"
  viewBox="0 0 16 16"
  fill="none"
  xmlns="http://www.w3.org/2000/svg"
>
  <path
    d="M14.4647 8.67598C14.4647 8.67265 14.4667 8.67 14.4667 8.66667C14.4667 8.65733 14.4621 8.65 14.4614 8.64067C14.4541 8.59533 14.444 8.55001 14.434 8.50468C14.4294 8.49135 14.4281 8.47735 14.4227 8.46468C14.3954 8.34868 14.3674 8.23265 14.3234 8.11865L13.6314 6.40934C13.3254 5.63401 13.0087 4.83268 11.3127 4.83268H9.83272V3.66602C9.83272 2.83868 9.15939 2.16602 8.33272 2.16602H2.99939C2.17272 2.16602 1.49939 2.83868 1.49939 3.66602V10.9993C1.49939 11.776 2.09469 12.4087 2.85136 12.4847C2.84536 12.5453 2.83272 12.604 2.83272 12.666C2.83272 13.6767 3.65472 14.4993 4.66606 14.4993C5.67739 14.4993 6.49939 13.6767 6.49939 12.666C6.49939 12.6087 6.48737 12.5547 6.48271 12.4993H9.51672C9.51139 12.5547 9.50004 12.6087 9.50004 12.666C9.50004 13.6767 10.322 14.4993 11.3334 14.4993C12.3447 14.4993 13.1667 13.6767 13.1667 12.666C13.1667 12.604 13.1547 12.5447 13.1481 12.4847C13.9047 12.4087 14.5 11.776 14.5 10.9993V9.05265C14.5 8.92665 14.4834 8.80132 14.4647 8.67598ZM11.3134 5.83333C12.3287 5.83333 12.4234 6.07135 12.7034 6.78068L13.264 8.16667H9.83337V5.83333H11.3134ZM4.66671 13.5C4.20737 13.5 3.83337 13.126 3.83337 12.6667C3.83337 12.2073 4.20737 11.8333 4.66671 11.8333C5.12604 11.8333 5.50004 12.2073 5.50004 12.6667C5.50004 13.126 5.12604 13.5 4.66671 13.5ZM11.3334 13.5C10.874 13.5 10.5 13.126 10.5 12.6667C10.5 12.2073 10.874 11.8333 11.3334 11.8333C11.7927 11.8333 12.1667 12.2073 12.1667 12.6667C12.1667 13.126 11.7927 13.5 11.3334 13.5ZM13 11.5H12.736C12.3994 11.096 11.8994 10.8333 11.3334 10.8333C10.7674 10.8333 10.2674 11.096 9.93071 11.5H6.06873C5.73206 11.096 5.23206 10.8333 4.66606 10.8333C4.10006 10.8333 3.60005 11.096 3.26339 11.5H2.99939C2.72406 11.5 2.49939 11.276 2.49939 11V9.16667H6.66606C6.94206 9.16667 7.16606 8.94267 7.16606 8.66667C7.16606 8.39067 6.94206 8.16667 6.66606 8.16667H2.49939V3.66667C2.49939 3.39067 2.72406 3.16667 2.99939 3.16667H8.33272C8.60806 3.16667 8.83272 3.39067 8.83272 3.66667V9.16667H13.4994V11C13.5001 11.276 13.2754 11.5 13 11.5Z"
    fill="#293BDC"
  />
</svg> 