<svg width="106" height="29" viewBox="0 0 106 29" fill="none" xmlns="http://www.w3.org/2000/svg">
<path d="M13.7225 22.4369C13.7225 24.263 13.2714 25.6846 12.369 26.7015C11.4667 27.7113 10.2635 28.2161 8.75964 28.2161C8.05781 28.2161 7.48132 28.1338 7.03014 27.9691V25.5628C7.43835 25.8421 7.96471 25.9818 8.60925 25.9818C10.3137 25.9818 11.1659 24.6641 11.1659 22.0286V12.554H13.7225V22.4369ZM26.4198 23.1351H18.9217C18.9504 24.152 19.2619 24.9362 19.8563 25.4876C20.4579 26.0391 21.2814 26.3148 22.327 26.3148C23.5015 26.3148 24.5793 25.9639 25.5604 25.262V27.2708C24.5578 27.901 23.2329 28.2161 21.5858 28.2161C19.9673 28.2161 18.6962 27.7184 17.7723 26.723C16.8557 25.7204 16.3973 24.3132 16.3973 22.5013C16.3973 20.7897 16.9022 19.3968 17.912 18.3226C18.9289 17.2412 20.1893 16.7005 21.6932 16.7005C23.1971 16.7005 24.3609 17.1839 25.1844 18.1507C26.008 19.1175 26.4198 20.4603 26.4198 22.179V23.1351ZM24.0135 21.3734C24.0064 20.4782 23.7951 19.7835 23.3798 19.2894C22.9644 18.7881 22.3915 18.5374 21.661 18.5374C20.9449 18.5374 20.3361 18.7988 19.8348 19.3216C19.3407 19.8444 19.0363 20.5283 18.9217 21.3734H24.0135ZM35.1747 19.3324C34.8739 19.096 34.4406 18.9779 33.8749 18.9779C33.1372 18.9779 32.5214 19.3109 32.0272 19.9769C31.5331 20.6429 31.286 21.5488 31.286 22.6947V27.9583H28.7938V16.9583H31.286V19.2249H31.329C31.5725 18.4515 31.9449 17.8499 32.4462 17.4202C32.9546 16.9834 33.5204 16.765 34.1434 16.765C34.5946 16.765 34.9383 16.833 35.1747 16.9691V19.3324ZM47.0985 14.724H42.6727V27.9583H40.1161V14.724H35.701V12.554H47.0985V14.724ZM55.3915 27.9583H52.9745V26.2396H52.9315C52.1724 27.5573 51.0588 28.2161 49.5907 28.2161C48.5093 28.2161 47.6607 27.9225 47.0448 27.3353C46.4361 26.748 46.1317 25.971 46.1317 25.0042C46.1317 22.9274 47.3277 21.7171 49.7196 21.3734L52.9852 20.9115C52.9852 19.3431 52.2404 18.5589 50.7508 18.5589C49.4403 18.5589 48.2587 19.0101 47.2059 19.9124V17.7318C48.3661 17.0443 49.7053 16.7005 51.2235 16.7005C54.0021 16.7005 55.3915 18.0684 55.3915 20.804V27.9583ZM52.9852 22.555L50.6757 22.8773C49.9595 22.9704 49.4188 23.1458 49.0536 23.4036C48.6955 23.6543 48.5165 24.0983 48.5165 24.7357C48.5165 25.2012 48.6812 25.5843 49.0106 25.8851C49.3472 26.1787 49.7948 26.3255 50.3534 26.3255C51.1125 26.3255 51.7391 26.0605 52.2333 25.5306C52.7346 24.9935 52.9852 24.3203 52.9852 23.5111V22.555ZM68.2391 27.9583H65.7469V21.7601C65.7469 19.7048 65.0201 18.6771 63.5663 18.6771C62.8072 18.6771 62.1805 18.9635 61.6864 19.5365C61.1923 20.1022 60.9452 20.8184 60.9452 21.6849V27.9583H58.4423V16.9583H60.9452V18.7845H60.9882C61.8117 17.3952 63.0005 16.7005 64.5546 16.7005C65.7505 16.7005 66.6636 17.0908 67.2938 17.8714C67.924 18.6449 68.2391 19.7656 68.2391 21.2337V27.9583ZM80.8827 27.9583H78.3905V26.2181H78.3475C77.6242 27.5501 76.4999 28.2161 74.9745 28.2161C72.3749 28.2161 71.0751 26.655 71.0751 23.5326V16.9583H73.5673V23.2747C73.5673 25.2513 74.3299 26.2396 75.8553 26.2396C76.593 26.2396 77.1981 25.9675 77.6708 25.4232C78.1506 24.8789 78.3905 24.1663 78.3905 23.2855V16.9583H80.8827V27.9583Z" fill="#007AFF"/>
<mask id="mask0_311_2277" style="mask-type:alpha" maskUnits="userSpaceOnUse" x="0" y="0" width="21" height="21">
<path d="M20.7928 10.3125C20.7928 8.30752 20.2036 6.34601 19.0972 4.66803C17.9909 2.99004 16.4154 1.66835 14.5636 0.864685C12.7118 0.0610244 10.664 -0.189746 8.67071 0.14306C6.67745 0.475867 4.82523 1.37782 3.3407 2.73853C1.85617 4.09925 0.803716 5.85972 0.312138 7.80451C-0.17944 9.74929 -0.0888244 11.794 0.572896 13.6885C1.23462 15.583 2.43874 17.2451 4.03792 18.4714C5.63709 19.6976 7.56196 20.4349 9.57697 20.5929L10.3964 10.3125H20.7928Z" fill="#B85959"/>
</mask>
<g mask="url(#mask0_311_2277)">
<path d="M10.1796 0.237249C4.93676 0.237249 0.672108 4.46836 0.672108 9.668C0.672108 14.8676 4.93676 19.0987 10.1796 19.0987C15.4224 19.0987 19.6871 14.8676 19.6871 9.668C19.6871 4.46836 15.4224 0.237249 10.1796 0.237249ZM18.3268 9.01004H14.7449C14.6291 6.60366 13.8826 4.15168 12.5914 1.91374C15.7249 2.87524 18.0535 5.65883 18.3268 9.01004ZM10.8252 1.58562C12.3783 3.87619 13.283 6.4747 13.4183 9.01004H6.94086C7.07529 6.4747 7.98091 3.87619 9.53395 1.58562C9.74798 1.56895 9.96202 1.55317 10.1796 1.55317C10.3972 1.55317 10.6121 1.56895 10.8252 1.58562ZM7.76779 1.91374C6.47654 4.15168 5.7301 6.60366 5.61424 9.01004H2.03234C2.30562 5.65883 4.6343 2.87524 7.76779 1.91374ZM2.03234 10.326H5.61424C5.7301 12.7323 6.47654 15.1843 7.76779 17.4223C4.6343 16.4608 2.30562 13.6772 2.03234 10.326ZM9.53395 17.7504C7.98091 15.4598 7.07618 12.8613 6.94086 10.326H13.4183C13.2839 12.8613 12.3783 15.4598 10.8252 17.7504C10.6112 17.767 10.3972 17.7828 10.1796 17.7828C9.96202 17.7828 9.74709 17.767 9.53395 17.7504ZM12.5914 17.4223C13.8826 15.1843 14.6291 12.7323 14.7449 10.326H18.3268C18.0535 13.6772 15.7249 16.4608 12.5914 17.4223Z" fill="#007AFF"/>
</g>
</svg>
