<svg width="192" height="69" viewBox="0 0 192 69" fill="none" xmlns="http://www.w3.org/2000/svg">
<path d="M40.9023 55.9531C40.9023 59.9375 39.918 63.0391 37.9492 65.2578C35.9805 67.4609 33.3555 68.5625 30.0742 68.5625C28.543 68.5625 27.2852 68.3828 26.3008 68.0234V62.7734C27.1914 63.3828 28.3398 63.6875 29.7461 63.6875C33.4648 63.6875 35.3242 60.8125 35.3242 55.0625V34.3906H40.9023V55.9531ZM68.6055 57.4766H52.2461C52.3086 59.6953 52.9883 61.4062 54.2852 62.6094C55.5977 63.8125 57.3945 64.4141 59.6758 64.4141C62.2383 64.4141 64.5898 63.6484 66.7305 62.1172V66.5C64.543 67.875 61.6523 68.5625 58.0586 68.5625C54.5273 68.5625 51.7539 67.4766 49.7383 65.3047C47.7383 63.1172 46.7383 60.0469 46.7383 56.0938C46.7383 52.3594 47.8398 49.3203 50.043 46.9766C52.2617 44.6172 55.0117 43.4375 58.293 43.4375C61.5742 43.4375 64.1133 44.4922 65.9102 46.6016C67.707 48.7109 68.6055 51.6406 68.6055 55.3906V57.4766ZM63.3555 53.6328C63.3398 51.6797 62.8789 50.1641 61.9727 49.0859C61.0664 47.9922 59.8164 47.4453 58.2227 47.4453C56.6602 47.4453 55.332 48.0156 54.2383 49.1562C53.1602 50.2969 52.4961 51.7891 52.2461 53.6328H63.3555ZM87.707 49.1797C87.0508 48.6641 86.1055 48.4062 84.8711 48.4062C83.2617 48.4062 81.918 49.1328 80.8398 50.5859C79.7617 52.0391 79.2227 54.0156 79.2227 56.5156V68H73.7852V44H79.2227V48.9453H79.3164C79.8477 47.2578 80.6602 45.9453 81.7539 45.0078C82.8633 44.0547 84.0977 43.5781 85.457 43.5781C86.4414 43.5781 87.1914 43.7266 87.707 44.0234V49.1797ZM113.723 39.125H104.066V68H98.4883V39.125H88.8555V34.3906H113.723V39.125ZM131.816 68H126.543V64.25H126.449C124.793 67.125 122.363 68.5625 119.16 68.5625C116.801 68.5625 114.949 67.9219 113.605 66.6406C112.277 65.3594 111.613 63.6641 111.613 61.5547C111.613 57.0234 114.223 54.3828 119.441 53.6328L126.566 52.625C126.566 49.2031 124.941 47.4922 121.691 47.4922C118.832 47.4922 116.254 48.4766 113.957 50.4453V45.6875C116.488 44.1875 119.41 43.4375 122.723 43.4375C128.785 43.4375 131.816 46.4219 131.816 52.3906V68ZM126.566 56.2109L121.527 56.9141C119.965 57.1172 118.785 57.5 117.988 58.0625C117.207 58.6094 116.816 59.5781 116.816 60.9688C116.816 61.9844 117.176 62.8203 117.895 63.4766C118.629 64.1172 119.605 64.4375 120.824 64.4375C122.48 64.4375 123.848 63.8594 124.926 62.7031C126.02 61.5312 126.566 60.0625 126.566 58.2969V56.2109ZM159.848 68H154.41V54.4766C154.41 49.9922 152.824 47.75 149.652 47.75C147.996 47.75 146.629 48.375 145.551 49.625C144.473 50.8594 143.934 52.4219 143.934 54.3125V68H138.473V44H143.934V47.9844H144.027C145.824 44.9531 148.418 43.4375 151.809 43.4375C154.418 43.4375 156.41 44.2891 157.785 45.9922C159.16 47.6797 159.848 50.125 159.848 53.3281V68ZM187.434 68H181.996V64.2031H181.902C180.324 67.1094 177.871 68.5625 174.543 68.5625C168.871 68.5625 166.035 65.1562 166.035 58.3438V44H171.473V57.7812C171.473 62.0938 173.137 64.25 176.465 64.25C178.074 64.25 179.395 63.6562 180.426 62.4688C181.473 61.2812 181.996 59.7266 181.996 57.8047V44H187.434V68Z" fill="#EAEBFC"/>
<mask id="mask0_498_847" style="mask-type:alpha" maskUnits="userSpaceOnUse" x="0" y="0" width="60" height="59">
<path d="M59.6932 29.4643C59.6932 23.7358 58.0097 18.1315 54.8487 13.3372C51.6877 8.54297 47.1864 4.7667 41.8955 2.47053C36.6046 0.174355 30.7536 -0.542132 25.0586 0.408744C19.3636 1.35962 14.0715 3.93662 9.83001 7.82438C5.58849 11.7121 2.58149 16.7421 1.17698 22.2986C-0.227529 27.8551 0.0313723 33.6973 1.922 39.1101C3.81263 44.523 7.25298 49.2718 11.8221 52.7754C16.3911 56.2789 21.8908 58.3854 27.6479 58.8369L29.9892 29.4643H59.6932Z" fill="#B85959"/>
</mask>
<g mask="url(#mask0_498_847)">
<path d="M29.3683 0.67778C14.3888 0.67778 2.2041 12.7667 2.2041 27.6228C2.2041 42.4789 14.3888 54.5678 29.3683 54.5678C44.3478 54.5678 56.5325 42.4789 56.5325 27.6228C56.5325 12.7667 44.3478 0.67778 29.3683 0.67778ZM52.6462 25.7429H42.4122C42.0811 18.8675 39.9484 11.8619 36.2592 5.46775C45.212 8.21488 51.8654 16.168 52.6462 25.7429ZM31.213 4.53026C35.6502 11.0748 38.2352 18.4991 38.6218 25.7429H20.1148C20.4989 18.4991 23.0864 11.0748 27.5236 4.53026C28.1352 4.48263 28.7467 4.43755 29.3683 4.43755C29.9899 4.43755 30.604 4.48263 31.213 4.53026ZM22.4775 5.46775C18.7882 11.8619 16.6555 18.8675 16.3245 25.7429H6.09047C6.87128 16.168 13.5247 8.21488 22.4775 5.46775ZM6.09047 29.5027H16.3245C16.6555 36.378 18.7882 43.3837 22.4775 49.7778C13.5247 47.0307 6.87128 39.0775 6.09047 29.5027ZM27.5236 50.7153C23.0864 44.1708 20.5014 36.7465 20.1148 29.5027H38.6218C38.2377 36.7465 35.6502 44.1708 31.213 50.7153C30.6015 50.7629 29.9899 50.808 29.3683 50.808C28.7467 50.808 28.1326 50.7629 27.5236 50.7153ZM36.2592 49.7778C39.9484 43.3837 42.0811 36.378 42.4122 29.5027H52.6462C51.8654 39.0775 45.212 47.0307 36.2592 49.7778Z" fill="#EAEBFC"/>
</g>
</svg>
